<svg xmlns="http://www.w3.org/2000/svg" width="1029" height="498" fill="none"><path fill="#F7B155" d="M52 157.913c0 .029.06.087.06.087S104 79.914 104 54.254C104 16.488 77.674.058 52 0 26.326.058 0 16.488 0 54.254 0 79.913 51.97 158 51.97 158l.03-.087ZM34.005 52.105c0-9.753 8.063-17.649 18.025-17.649 9.96 0 18.025 7.896 18.025 17.65 0 9.753-8.094 17.648-18.055 17.648-9.932 0-17.995-7.895-17.995-17.649ZM977 405.913c0 .029.059.087.059.087S1029 327.914 1029 302.254c0-37.766-26.33-54.196-52-54.254-25.674.058-52 16.488-52 54.254C925 327.914 976.97 406 976.97 406l.03-.087Zm-17.995-105.808c0-9.753 8.063-17.649 18.025-17.649 9.961 0 18.025 7.896 18.025 17.649 0 9.754-8.094 17.65-18.055 17.65-9.932 0-17.995-7.896-17.995-17.65Z"/><path stroke="#F7B155" stroke-dasharray="60 60" stroke-linecap="round" stroke-width="30" d="M63.5 189s580.502-5 580.502 82-287 79-287.002 166c-.002 97.931 611 8 611 8"/></svg>