<svg xmlns="http://www.w3.org/2000/svg" version="1.1" xmlns:xlink="http://www.w3.org/1999/xlink" xmlns:svgjs="http://svgjs.com/svgjs" width="30" height="45"><svg xmlns="http://www.w3.org/2000/svg" width="30" height="45" fill="none"><path fill="#F7B155" d="M14.819 44.827c0 .009.016.025.016.025s14.49-21.752 14.49-28.9C29.325 5.432 21.981.855 14.82.839 7.656.855.312 5.432.312 15.952c0 7.148 14.498 28.9 14.498 28.9l.009-.025Zm-5.02-29.473c0-2.717 2.249-4.917 5.028-4.917 2.779 0 5.028 2.2 5.028 4.917 0 2.717-2.258 4.916-5.036 4.916-2.771 0-5.02-2.2-5.02-4.916Z"></path></svg><style>@media (prefers-color-scheme: light) { :root { filter: none; } }
</style></svg>