<svg xmlns="http://www.w3.org/2000/svg" width="280" height="106" fill="none"><path fill="#000" d="M47.296 85.574V49.866h7.829l.13 7.182-1.295.542c.389-1.174.97-2.258 1.747-3.252a11.31 11.31 0 0 1 2.782-2.642 13.089 13.089 0 0 1 3.43-1.762 10.45 10.45 0 0 1 3.688-.678c1.855 0 3.494.317 4.917.949 1.467.587 2.674 1.536 3.623 2.846.992 1.31 1.726 2.981 2.2 5.014l-1.23-.271.518-1.084a9.396 9.396 0 0 1 2.006-2.914 15.158 15.158 0 0 1 2.912-2.371 12.895 12.895 0 0 1 3.364-1.627 12.377 12.377 0 0 1 3.559-.542c2.588 0 4.745.542 6.47 1.627 1.725 1.084 3.02 2.732 3.882 4.946.863 2.213 1.294 4.946 1.294 8.198v21.547H91.1V64.569c0-1.806-.237-3.297-.712-4.472-.43-1.174-1.121-2.032-2.07-2.574-.906-.588-2.049-.881-3.43-.881a8.113 8.113 0 0 0-3.105.61 6.603 6.603 0 0 0-2.459 1.626 7.362 7.362 0 0 0-1.617 2.371c-.388.904-.582 1.898-.582 2.982v21.343H69.1V64.502c0-1.717-.238-3.14-.712-4.27-.475-1.173-1.165-2.054-2.07-2.642-.906-.632-2.006-.948-3.3-.948a7.639 7.639 0 0 0-3.041.61 7.037 7.037 0 0 0-2.459 1.558 7.362 7.362 0 0 0-1.617 2.371c-.389.904-.583 1.898-.583 2.982v21.41h-8.023ZM122.515 86.251c-3.58 0-6.751-.79-9.511-2.371-2.718-1.581-4.853-3.727-6.406-6.437-1.509-2.755-2.264-5.895-2.264-9.418 0-2.8.431-5.353 1.294-7.657.862-2.303 2.049-4.29 3.558-5.962a15.606 15.606 0 0 1 5.5-3.93c2.157-.949 4.508-1.423 7.052-1.423 2.243 0 4.335.452 6.277 1.355a15.54 15.54 0 0 1 5.046 3.727c1.424 1.536 2.502 3.388 3.235 5.556.777 2.123 1.143 4.45 1.1 6.979l-.064 2.913h-27.628l-1.488-5.691h22.451l-1.035 1.152v-1.491c-.129-1.4-.561-2.62-1.294-3.659a7.409 7.409 0 0 0-2.847-2.507c-1.121-.632-2.372-.948-3.753-.948-2.113 0-3.903.429-5.37 1.287-1.423.858-2.502 2.1-3.235 3.727-.733 1.58-1.1 3.568-1.1 5.962 0 2.304.453 4.314 1.359 6.03.949 1.717 2.264 3.05 3.947 3.998 1.725.904 3.731 1.355 6.017 1.355 1.596 0 3.063-.27 4.4-.813 1.337-.542 2.782-1.513 4.335-2.913l3.947 5.759a17.953 17.953 0 0 1-4.012 2.913 23.437 23.437 0 0 1-4.658 1.83c-1.64.452-3.257.677-4.853.677ZM159.003 86.251c-3.581 0-6.751-.79-9.512-2.371-2.717-1.581-4.852-3.727-6.405-6.437-1.51-2.755-2.265-5.895-2.265-9.418 0-2.8.432-5.353 1.294-7.657.863-2.303 2.049-4.29 3.559-5.962a15.606 15.606 0 0 1 5.5-3.93c2.156-.949 4.507-1.423 7.052-1.423 2.243 0 4.335.452 6.276 1.355a15.544 15.544 0 0 1 5.047 3.727c1.423 1.536 2.502 3.388 3.235 5.556.776 2.123 1.143 4.45 1.1 6.979l-.065 2.913h-27.627l-1.488-5.691h22.451l-1.035 1.152v-1.491c-.13-1.4-.561-2.62-1.294-3.659a7.423 7.423 0 0 0-2.847-2.507c-1.122-.632-2.373-.948-3.753-.948-2.113 0-3.904.429-5.37 1.287-1.424.858-2.502 2.1-3.235 3.727-.733 1.58-1.1 3.568-1.1 5.962 0 2.304.453 4.314 1.359 6.03.949 1.717 2.264 3.05 3.946 3.998 1.726.904 3.732 1.355 6.018 1.355 1.596 0 3.062-.27 4.399-.813 1.338-.542 2.783-1.513 4.335-2.913l3.947 5.759a17.946 17.946 0 0 1-4.011 2.913 23.446 23.446 0 0 1-4.659 1.83 18.199 18.199 0 0 1-4.852.677ZM193.226 86.251c-3.02 0-5.737-.79-8.153-2.371-2.372-1.626-4.27-3.817-5.693-6.572-1.381-2.801-2.071-6.008-2.071-9.622 0-3.568.69-6.753 2.071-9.554 1.38-2.8 3.256-4.99 5.629-6.572 2.415-1.626 5.133-2.44 8.152-2.44 1.639 0 3.214.272 4.723.814 1.553.542 2.933 1.287 4.141 2.236 1.208.903 2.157 1.92 2.847 3.049.733 1.13 1.143 2.304 1.229 3.523l-2.135.271V35.434h7.959v50.14h-7.7l-.194-8.402 1.553.136c-.043 1.129-.432 2.213-1.165 3.252-.69 1.039-1.596 1.987-2.717 2.846-1.122.858-2.437 1.558-3.947 2.1a14.02 14.02 0 0 1-4.529.745Zm1.553-7.046c1.854 0 3.493-.497 4.917-1.49 1.423-.995 2.523-2.35 3.3-4.066.819-1.717 1.229-3.704 1.229-5.963 0-2.213-.41-4.178-1.229-5.895-.777-1.761-1.877-3.116-3.3-4.065-1.424-.994-3.063-1.49-4.917-1.49-1.855 0-3.494.496-4.918 1.49-1.423.949-2.545 2.304-3.364 4.065-.777 1.717-1.165 3.682-1.165 5.895 0 2.259.388 4.246 1.165 5.963.819 1.716 1.941 3.071 3.364 4.065 1.424.994 3.063 1.49 4.918 1.49ZM219.6 85.574v-50.14h8.023v50.14H219.6ZM250.9 86.251c-3.58 0-6.75-.79-9.511-2.371-2.717-1.581-4.853-3.727-6.405-6.437-1.51-2.755-2.265-5.895-2.265-9.418 0-2.8.431-5.353 1.294-7.657.863-2.303 2.049-4.29 3.559-5.962a15.602 15.602 0 0 1 5.499-3.93c2.157-.949 4.508-1.423 7.053-1.423 2.243 0 4.335.452 6.276 1.355a15.555 15.555 0 0 1 5.047 3.727c1.423 1.536 2.501 3.388 3.235 5.556.776 2.123 1.143 4.45 1.1 6.979l-.065 2.913h-27.628l-1.488-5.691h22.452l-1.036 1.152v-1.491c-.129-1.4-.56-2.62-1.294-3.659a7.409 7.409 0 0 0-2.847-2.507c-1.121-.632-2.372-.948-3.752-.948-2.114 0-3.904.429-5.37 1.287-1.424.858-2.502 2.1-3.236 3.727-.733 1.58-1.099 3.568-1.099 5.962 0 2.304.452 4.314 1.358 6.03.949 1.717 2.265 3.05 3.947 3.998 1.725.904 3.731 1.355 6.017 1.355 1.596 0 3.063-.27 4.4-.813 1.337-.542 2.782-1.513 4.335-2.913l3.947 5.759a17.953 17.953 0 0 1-4.012 2.913 23.413 23.413 0 0 1-4.658 1.83 18.206 18.206 0 0 1-4.853.677ZM274.448 86.32c-1.553 0-2.761-.475-3.624-1.424-.819-.948-1.229-2.28-1.229-3.997 0-1.581.431-2.869 1.294-3.862.906-1.04 2.092-1.559 3.559-1.559 1.552 0 2.739.474 3.558 1.423.863.903 1.294 2.236 1.294 3.998 0 1.58-.453 2.89-1.359 3.93-.862.993-2.027 1.49-3.493 1.49Z"/><path fill="#818181" d="M106.07 105.161v-8.927h1.958l.032 1.795-.324.136a2.68 2.68 0 0 1 .437-.813c.194-.26.426-.48.696-.661.269-.192.555-.339.857-.44.302-.113.609-.17.922-.17a3 3 0 0 1 1.229.237c.367.147.669.384.906.712.248.327.431.745.55 1.253l-.307-.067.129-.271c.119-.271.286-.514.502-.729a3.78 3.78 0 0 1 .727-.593 3.092 3.092 0 0 1 1.731-.542c.647 0 1.186.136 1.618.407.431.27.755.683.97 1.236.216.554.324 1.237.324 2.05v5.387h-2.006v-5.252c0-.451-.059-.824-.178-1.118-.108-.293-.28-.508-.517-.643-.227-.147-.513-.22-.858-.22-.269 0-.528.05-.776.152-.237.09-.442.226-.615.407a1.848 1.848 0 0 0-.55 1.338v5.336h-2.006v-5.269c0-.429-.059-.784-.178-1.067a1.367 1.367 0 0 0-.517-.66 1.407 1.407 0 0 0-.825-.237c-.27 0-.523.05-.76.152-.238.09-.442.22-.615.39a1.831 1.831 0 0 0-.55 1.338v5.353h-2.006ZM125.053 105.33c-.895 0-1.688-.198-2.378-.593a4.314 4.314 0 0 1-1.601-1.609c-.378-.689-.566-1.474-.566-2.355 0-.7.107-1.338.323-1.914a4.603 4.603 0 0 1 .89-1.49c.388-.43.846-.757 1.375-.983a4.331 4.331 0 0 1 1.763-.356 3.67 3.67 0 0 1 1.569.34c.485.225.906.536 1.262.93.355.385.625.848.808 1.39.194.53.286 1.112.275 1.745l-.016.728h-6.907l-.372-1.423h5.613l-.259.288v-.373a1.85 1.85 0 0 0-.323-.914 1.86 1.86 0 0 0-.712-.627 1.875 1.875 0 0 0-.938-.237c-.529 0-.976.107-1.343.322a2.032 2.032 0 0 0-.809.931c-.183.395-.274.892-.274 1.491 0 .576.113 1.078.339 1.507.237.43.566.763.987 1 .431.226.933.339 1.504.339.399 0 .766-.068 1.1-.204.334-.135.696-.378 1.084-.728l.987 1.44a4.517 4.517 0 0 1-1.003.728 5.869 5.869 0 0 1-1.165.458 4.59 4.59 0 0 1-1.213.169ZM134.353 105.33c-.895 0-1.688-.198-2.378-.593a4.314 4.314 0 0 1-1.601-1.609c-.378-.689-.567-1.474-.567-2.355 0-.7.108-1.338.324-1.914a4.603 4.603 0 0 1 .89-1.49c.388-.43.846-.757 1.375-.983a4.328 4.328 0 0 1 1.763-.356c.56 0 1.083.113 1.569.34.485.225.906.536 1.261.93.356.385.626.848.809 1.39.194.53.286 1.112.275 1.745l-.016.728h-6.907l-.372-1.423h5.613l-.259.288v-.373a1.85 1.85 0 0 0-.323-.914 1.86 1.86 0 0 0-.712-.627 1.878 1.878 0 0 0-.938-.237c-.529 0-.976.107-1.343.322a2.032 2.032 0 0 0-.809.931c-.183.395-.275.892-.275 1.491 0 .576.114 1.078.34 1.507.237.43.566.763.987 1 .431.226.933.339 1.504.339.399 0 .766-.068 1.1-.204.334-.135.696-.378 1.084-.728l.986 1.44a4.488 4.488 0 0 1-1.002.728 5.869 5.869 0 0 1-1.165.458 4.59 4.59 0 0 1-1.213.169ZM140.579 105.161V93.964h1.99v11.197h-1.99Zm-1.682-6.996v-1.931h5.532v1.93h-5.532ZM150.311 105.161v-8.927h1.957l.032 1.795-.323.136c.097-.294.242-.565.437-.813.194-.26.425-.48.695-.661.27-.192.555-.339.857-.44.302-.113.61-.17.922-.17.464 0 .874.08 1.23.237.366.147.668.384.906.712.248.327.431.745.549 1.253l-.307-.067.13-.271c.118-.271.285-.514.501-.729.216-.226.458-.423.728-.593a3.093 3.093 0 0 1 1.731-.542c.647 0 1.186.136 1.617.407.432.27.755.683.971 1.236.215.554.323 1.237.323 2.05v5.387h-2.006v-5.252c0-.451-.059-.824-.177-1.118-.108-.293-.281-.508-.518-.643-.227-.147-.512-.22-.857-.22-.27 0-.529.05-.777.152-.237.09-.442.226-.614.407a1.834 1.834 0 0 0-.55 1.338v5.336h-2.006v-5.269c0-.429-.059-.784-.178-1.067-.119-.293-.291-.514-.518-.66-.226-.158-.501-.237-.825-.237-.269 0-.523.05-.76.152-.237.09-.442.22-.615.39a1.847 1.847 0 0 0-.55 1.338v5.353h-2.005ZM169.293 105.33c-.895 0-1.687-.198-2.377-.593a4.31 4.31 0 0 1-1.602-1.609c-.377-.689-.566-1.474-.566-2.355 0-.7.108-1.338.324-1.914a4.6 4.6 0 0 1 .889-1.49c.388-.43.847-.757 1.375-.983a4.331 4.331 0 0 1 1.763-.356 3.67 3.67 0 0 1 1.569.34c.486.225.906.536 1.262.93.356.385.625.848.809 1.39.194.53.285 1.112.275 1.745l-.016.728h-6.907l-.372-1.423h5.612l-.258.288v-.373a1.861 1.861 0 0 0-.324-.914 1.846 1.846 0 0 0-.712-.627 1.875 1.875 0 0 0-.938-.237c-.528 0-.976.107-1.342.322a2.026 2.026 0 0 0-.809.931c-.183.395-.275.892-.275 1.491 0 .576.113 1.078.34 1.507.237.43.566.763.986 1 .432.226.933.339 1.505.339.399 0 .765-.068 1.1-.204.334-.135.695-.378 1.083-.728l.987 1.44a4.471 4.471 0 0 1-1.003.728 5.869 5.869 0 0 1-1.165.458 4.583 4.583 0 0 1-1.213.169ZM179.401 105.161v-8.927h1.99v8.927h-1.99Zm.971-10.825c-.399 0-.712-.101-.939-.304-.215-.215-.323-.514-.323-.898 0-.362.113-.655.34-.881.226-.226.533-.339.922-.339.409 0 .722.108.938.322.226.203.339.503.339.898 0 .35-.113.638-.339.864-.227.226-.539.338-.938.338ZM183.736 105.161v-8.927h1.941l.032 1.83-.372.202c.108-.406.318-.773.631-1.1.313-.34.685-.61 1.116-.814a3.078 3.078 0 0 1 1.326-.305c.647 0 1.186.136 1.618.407.442.27.771.677.987 1.22.226.541.339 1.22.339 2.032v5.455h-1.989v-5.302c0-.452-.06-.825-.178-1.118-.119-.305-.302-.525-.55-.661-.248-.147-.55-.215-.906-.203-.291 0-.561.05-.809.152-.237.09-.447.226-.631.407a2.09 2.09 0 0 0-.42.593 1.87 1.87 0 0 0-.146.745v5.387H183.736ZM198.913 105.161V93.964h1.99v11.197h-1.99Zm-1.682-6.996v-1.931h5.532v1.93h-5.532ZM204.1 105.161V92.626h1.974v5.437l-.372.203c.108-.406.318-.773.631-1.1a3.56 3.56 0 0 1 1.116-.814 3.078 3.078 0 0 1 1.326-.305c.647 0 1.186.136 1.618.407.442.27.771.677.986 1.22.227.541.34 1.22.34 2.032v5.455h-1.99v-5.302c0-.452-.059-.825-.178-1.118-.118-.305-.302-.525-.55-.661-.248-.147-.55-.215-.905-.203-.292 0-.561.05-.809.152-.237.09-.448.226-.631.407-.173.17-.313.367-.421.593a1.87 1.87 0 0 0-.145.745v5.387h-1.99ZM217.775 105.33c-.895 0-1.688-.198-2.378-.593a4.317 4.317 0 0 1-1.602-1.609c-.377-.689-.566-1.474-.566-2.355 0-.7.108-1.338.324-1.914a4.6 4.6 0 0 1 .889-1.49c.389-.43.847-.757 1.375-.983a4.334 4.334 0 0 1 1.763-.356c.561 0 1.084.113 1.57.34.485.225.905.536 1.261.93.356.385.626.848.809 1.39.194.53.286 1.112.275 1.745l-.016.728h-6.907l-.372-1.423h5.613l-.259.288v-.373a1.842 1.842 0 0 0-.324-.914 1.85 1.85 0 0 0-.711-.627 1.879 1.879 0 0 0-.939-.237c-.528 0-.975.107-1.342.322a2.026 2.026 0 0 0-.809.931c-.183.395-.275.892-.275 1.491 0 .576.113 1.078.34 1.507.237.43.566.763.987 1 .431.226.932.339 1.504.339.399 0 .766-.068 1.1-.204.334-.135.695-.378 1.084-.728l.986 1.44a4.471 4.471 0 0 1-1.003.728 5.836 5.836 0 0 1-1.164.458 4.59 4.59 0 0 1-1.213.169ZM227.624 105.161v-8.927h1.957l.032 1.795-.323.136c.097-.294.242-.565.436-.813.194-.26.426-.48.696-.661.269-.192.555-.339.857-.44.302-.113.609-.17.922-.17.464 0 .874.08 1.23.237.366.147.668.384.905.712.248.327.432.745.55 1.253l-.307-.067.129-.271c.119-.271.286-.514.502-.729.215-.226.458-.423.728-.593a3.092 3.092 0 0 1 1.73-.542c.647 0 1.187.136 1.618.407.431.27.755.683.971 1.236.215.554.323 1.237.323 2.05v5.387h-2.006v-5.252c0-.451-.059-.824-.178-1.118a1.17 1.17 0 0 0-.517-.643c-.227-.147-.512-.22-.858-.22-.269 0-.528.05-.776.152-.237.09-.442.226-.615.407a1.848 1.848 0 0 0-.55 1.338v5.336h-2.005v-5.269c0-.429-.06-.784-.178-1.067-.119-.293-.291-.514-.518-.66-.226-.158-.501-.237-.825-.237-.269 0-.523.05-.76.152-.237.09-.442.22-.615.39a1.847 1.847 0 0 0-.55 1.338v5.353h-2.005ZM242.837 105.161v-8.927h1.99v8.927h-1.99Zm.971-10.825c-.399 0-.712-.101-.938-.304-.216-.215-.324-.514-.324-.898 0-.362.113-.655.34-.881.226-.226.534-.339.922-.339.41 0 .722.108.938.322.226.203.34.503.34.898 0 .35-.114.638-.34.864-.226.226-.539.338-.938.338ZM250.601 105.33a3.642 3.642 0 0 1-2.038-.593 4.39 4.39 0 0 1-1.424-1.643c-.345-.7-.517-1.502-.517-2.405 0-.892.172-1.689.517-2.389.345-.7.815-1.248 1.408-1.643a3.567 3.567 0 0 1 2.038-.61c.41 0 .803.068 1.181.204.388.135.733.321 1.035.559.302.225.539.48.712.762.183.282.285.576.307.88l-.534.068v-5.894h1.99v12.535h-1.925l-.049-2.101.388.034c-.01.282-.107.553-.291.813-.172.26-.399.497-.679.712-.28.214-.609.389-.987.525a3.507 3.507 0 0 1-1.132.186Zm.388-1.762c.464 0 .874-.124 1.23-.372.355-.249.63-.588.824-1.017.205-.429.308-.926.308-1.49 0-.554-.103-1.045-.308-1.474-.194-.44-.469-.78-.824-1.016a2.096 2.096 0 0 0-1.23-.373c-.464 0-.873.124-1.229.373-.356.237-.636.576-.841 1.016-.194.43-.291.92-.291 1.474 0 .564.097 1.061.291 1.49.205.429.485.768.841 1.017.356.248.765.372 1.229.372ZM260.785 105.33a3.644 3.644 0 0 1-2.038-.593c-.593-.406-1.067-.954-1.423-1.643-.345-.7-.518-1.502-.518-2.405 0-.892.173-1.689.518-2.389.345-.7.814-1.248 1.407-1.643a3.567 3.567 0 0 1 2.038-.61c.41 0 .804.068 1.181.204.388.135.733.321 1.035.559.302.225.539.48.712.762.183.282.286.576.307.88l-.533.068v-5.894h1.989v12.535h-1.925l-.048-2.101.388.034a1.498 1.498 0 0 1-.291.813c-.173.26-.399.497-.68.712-.28.214-.609.389-.986.525a3.513 3.513 0 0 1-1.133.186Zm.389-1.762c.463 0 .873-.124 1.229-.372.356-.249.631-.588.825-1.017.205-.429.307-.926.307-1.49 0-.554-.102-1.045-.307-1.474-.194-.44-.469-.78-.825-1.016a2.095 2.095 0 0 0-1.229-.373c-.464 0-.874.124-1.23.373-.356.237-.636.576-.841 1.016-.194.43-.291.92-.291 1.474 0 .564.097 1.061.291 1.49.205.429.485.768.841 1.017.356.248.766.372 1.23.372ZM267.557 105.161V92.626h2.006v12.535h-2.006ZM275.56 105.33c-.895 0-1.688-.198-2.378-.593a4.314 4.314 0 0 1-1.601-1.609c-.378-.689-.566-1.474-.566-2.355 0-.7.107-1.338.323-1.914a4.603 4.603 0 0 1 .89-1.49c.388-.43.846-.757 1.375-.983a4.331 4.331 0 0 1 1.763-.356 3.67 3.67 0 0 1 1.569.34c.485.225.906.536 1.261.93.356.385.626.848.809 1.39.194.53.286 1.112.275 1.745l-.016.728h-6.907l-.372-1.423h5.613l-.259.288v-.373a1.85 1.85 0 0 0-.323-.914 1.86 1.86 0 0 0-.712-.627 1.875 1.875 0 0 0-.938-.237c-.529 0-.976.107-1.343.322a2.032 2.032 0 0 0-.809.931c-.183.395-.275.892-.275 1.491 0 .576.114 1.078.34 1.507.237.43.566.763.987 1 .431.226.933.339 1.504.339.399 0 .766-.068 1.1-.204.334-.135.696-.378 1.084-.728l.987 1.44a4.517 4.517 0 0 1-1.003.728 5.869 5.869 0 0 1-1.165.458 4.59 4.59 0 0 1-1.213.169Z"/><path fill="#F7B155" d="M42.233 43.79c.005.006.029.006.029.006S37.07 16.665 31.96 11.314c-7.52-7.876-16.042-5.804-21.174-.454-5.108 5.374-7.087 14.298.433 22.174 5.11 5.35 31.024 10.78 31.024 10.78l-.011-.024ZM17.574 25.484c-1.942-2.034-1.906-5.365.08-7.445 1.987-2.08 5.167-2.118 7.11-.084 1.942 2.034 1.9 5.37-.087 7.451-1.98 2.074-5.16 2.112-7.103.078ZM46.847 43.82c-.006.005-.005.03-.005.03s25.907-5.436 31.017-10.787c7.52-7.876 5.542-16.8.434-22.174-5.132-5.35-13.654-7.422-21.174.454-5.11 5.35-10.295 32.488-10.295 32.488l.023-.012Zm17.481-25.823c1.942-2.034 5.123-1.997 7.11.084 1.986 2.08 2.022 5.41.08 7.444-1.943 2.034-5.13 1.99-7.116-.09-1.98-2.074-2.016-5.405-.074-7.438ZM41.816 50.048c.006-.007.005-.03.005-.03s-25.907 5.435-31.017 10.786c-7.52 7.876-5.542 16.8-.434 22.174 5.132 5.35 13.654 7.421 21.174-.454 5.11-5.351 10.295-32.488 10.295-32.488l-.023.012ZM24.336 75.87c-1.943 2.034-5.124 1.997-7.11-.084-1.987-2.08-2.023-5.41-.08-7.445 1.942-2.034 5.128-1.99 7.115.09 1.98 2.075 2.016 5.405.074 7.44Z"/></svg>