<svg xmlns="http://www.w3.org/2000/svg" width="280" height="106" fill="none"><path fill="#fff" d="M46.783 80.83V47.102h7.744l.128 6.784-1.28.512a9.977 9.977 0 0 1 1.728-3.072 10.986 10.986 0 0 1 2.752-2.496 13.181 13.181 0 0 1 3.392-1.664c1.195-.427 2.41-.64 3.648-.64 1.835 0 3.456.298 4.864.896a8.001 8.001 0 0 1 3.584 2.688c.981 1.237 1.707 2.816 2.176 4.736l-1.216-.256.512-1.024a8.874 8.874 0 0 1 1.984-2.752c.853-.854 1.813-1.6 2.88-2.24a13.014 13.014 0 0 1 3.328-1.536 12.776 12.776 0 0 1 3.52-.512c2.56 0 4.693.512 6.4 1.536 1.707 1.024 2.987 2.58 3.84 4.672.853 2.09 1.28 4.672 1.28 7.744V80.83h-7.936V60.99c0-1.707-.235-3.115-.704-4.224-.427-1.11-1.11-1.92-2.048-2.432-.896-.555-2.027-.832-3.392-.832-1.067 0-2.09.192-3.072.576a6.562 6.562 0 0 0-2.432 1.536 6.95 6.95 0 0 0-1.6 2.24c-.384.853-.576 1.792-.576 2.816v20.16h-7.936V60.926c0-1.622-.235-2.966-.704-4.032-.47-1.11-1.152-1.942-2.048-2.496-.896-.598-1.984-.896-3.264-.896-1.067 0-2.07.192-3.008.576a7.011 7.011 0 0 0-2.432 1.472 6.95 6.95 0 0 0-1.6 2.24c-.384.853-.576 1.792-.576 2.816V80.83h-7.936Zm74.403.64c-3.541 0-6.677-.747-9.408-2.24-2.688-1.494-4.8-3.52-6.336-6.08-1.493-2.603-2.24-5.568-2.24-8.896 0-2.646.427-5.056 1.28-7.232s2.027-4.054 3.52-5.632a15.44 15.44 0 0 1 5.44-3.712c2.133-.896 4.459-1.344 6.976-1.344 2.219 0 4.288.426 6.208 1.28a15.355 15.355 0 0 1 4.992 3.52c1.408 1.45 2.475 3.2 3.2 5.248.768 2.005 1.131 4.202 1.088 6.592l-.064 2.752h-27.328l-1.472-5.376h22.208l-1.024 1.088V60.03c-.128-1.323-.555-2.475-1.28-3.456a7.236 7.236 0 0 0-2.816-2.368c-1.109-.598-2.347-.896-3.712-.896-2.091 0-3.861.405-5.312 1.216-1.408.81-2.475 1.984-3.2 3.52-.725 1.493-1.088 3.37-1.088 5.632 0 2.176.448 4.074 1.344 5.696a9.782 9.782 0 0 0 3.904 3.776c1.707.853 3.691 1.28 5.952 1.28 1.579 0 3.029-.256 4.352-.768 1.323-.512 2.752-1.43 4.288-2.752l3.904 5.44a17.752 17.752 0 0 1-3.968 2.752 23.857 23.857 0 0 1-4.608 1.728 18.8 18.8 0 0 1-4.8.64Zm36.092 0c-3.541 0-6.677-.747-9.408-2.24-2.688-1.494-4.8-3.52-6.336-6.08-1.493-2.603-2.24-5.568-2.24-8.896 0-2.646.427-5.056 1.28-7.232s2.027-4.054 3.52-5.632a15.44 15.44 0 0 1 5.44-3.712c2.133-.896 4.459-1.344 6.976-1.344 2.219 0 4.288.426 6.208 1.28a15.355 15.355 0 0 1 4.992 3.52c1.408 1.45 2.475 3.2 3.2 5.248.768 2.005 1.131 4.202 1.088 6.592l-.064 2.752h-27.328l-1.472-5.376h22.208l-1.024 1.088V60.03c-.128-1.323-.555-2.475-1.28-3.456a7.236 7.236 0 0 0-2.816-2.368c-1.109-.598-2.347-.896-3.712-.896-2.091 0-3.861.405-5.312 1.216-1.408.81-2.475 1.984-3.2 3.52-.725 1.493-1.088 3.37-1.088 5.632 0 2.176.448 4.074 1.344 5.696a9.782 9.782 0 0 0 3.904 3.776c1.707.853 3.691 1.28 5.952 1.28 1.579 0 3.029-.256 4.352-.768 1.323-.512 2.752-1.43 4.288-2.752l3.904 5.44a17.752 17.752 0 0 1-3.968 2.752 23.857 23.857 0 0 1-4.608 1.728 18.8 18.8 0 0 1-4.8.64Zm33.852 0c-2.987 0-5.675-.747-8.064-2.24-2.347-1.536-4.224-3.606-5.632-6.208-1.365-2.646-2.048-5.675-2.048-9.088 0-3.371.683-6.38 2.048-9.024 1.365-2.646 3.221-4.715 5.568-6.208 2.389-1.536 5.077-2.304 8.064-2.304 1.621 0 3.179.256 4.672.768 1.536.512 2.901 1.216 4.096 2.112 1.195.853 2.133 1.813 2.816 2.88.725 1.066 1.131 2.176 1.216 3.328l-2.112.256V33.47h7.872v47.36h-7.616l-.192-7.936 1.536.128c-.043 1.066-.427 2.09-1.152 3.072-.683.98-1.579 1.877-2.688 2.688-1.109.81-2.411 1.472-3.904 1.984-1.451.469-2.944.704-4.48.704Zm1.536-6.656c1.835 0 3.456-.47 4.864-1.408 1.408-.94 2.496-2.22 3.264-3.84.811-1.622 1.216-3.5 1.216-5.632 0-2.091-.405-3.947-1.216-5.568-.768-1.664-1.856-2.944-3.264-3.84-1.408-.94-3.029-1.408-4.864-1.408s-3.456.469-4.864 1.408c-1.408.896-2.517 2.176-3.328 3.84-.768 1.62-1.152 3.477-1.152 5.568 0 2.133.384 4.01 1.152 5.632.811 1.62 1.92 2.9 3.328 3.84 1.408.938 3.029 1.408 4.864 1.408Zm24.552 6.016V33.47h7.936v47.36h-7.936Zm30.961.64c-3.541 0-6.677-.747-9.408-2.24-2.688-1.494-4.8-3.52-6.336-6.08-1.493-2.603-2.24-5.568-2.24-8.896 0-2.646.427-5.056 1.28-7.232s2.027-4.054 3.52-5.632a15.44 15.44 0 0 1 5.44-3.712c2.133-.896 4.459-1.344 6.976-1.344 2.219 0 4.288.426 6.208 1.28a15.355 15.355 0 0 1 4.992 3.52c1.408 1.45 2.475 3.2 3.2 5.248.768 2.005 1.131 4.202 1.088 6.592l-.064 2.752h-27.328l-1.472-5.376h22.208l-1.024 1.088V60.03c-.128-1.323-.555-2.475-1.28-3.456a7.236 7.236 0 0 0-2.816-2.368c-1.109-.598-2.347-.896-3.712-.896-2.091 0-3.861.405-5.312 1.216-1.408.81-2.475 1.984-3.2 3.52-.725 1.493-1.088 3.37-1.088 5.632 0 2.176.448 4.074 1.344 5.696a9.782 9.782 0 0 0 3.904 3.776c1.707.853 3.691 1.28 5.952 1.28 1.579 0 3.029-.256 4.352-.768 1.323-.512 2.752-1.43 4.288-2.752l3.904 5.44a17.752 17.752 0 0 1-3.968 2.752 23.857 23.857 0 0 1-4.608 1.728 18.8 18.8 0 0 1-4.8.64Zm23.292.064c-1.536 0-2.731-.448-3.584-1.344-.811-.896-1.216-2.155-1.216-3.776 0-1.494.427-2.71 1.28-3.648.896-.982 2.069-1.472 3.52-1.472 1.536 0 2.709.448 3.52 1.344.853.853 1.28 2.112 1.28 3.776 0 1.493-.448 2.73-1.344 3.712-.853.938-2.005 1.408-3.456 1.408Z"/><path fill="#818181" d="M104.92 99.33v-8.432h1.936l.032 1.696-.32.128c.096-.277.24-.533.432-.768.192-.245.421-.453.688-.624.267-.18.549-.32.848-.416.299-.106.603-.16.912-.16.459 0 .864.075 1.216.224a2 2 0 0 1 .896.672c.245.31.427.704.544 1.184l-.304-.064.128-.256a2.22 2.22 0 0 1 .496-.688 3.7 3.7 0 0 1 .72-.56c.267-.17.544-.298.832-.384.299-.085.592-.128.88-.128.64 0 1.173.128 1.6.384.427.256.747.646.96 1.168.213.523.32 1.168.32 1.936v5.088h-1.984v-4.96c0-.426-.059-.778-.176-1.056a1.12 1.12 0 0 0-.512-.608c-.224-.138-.507-.208-.848-.208-.267 0-.523.048-.768.144a1.643 1.643 0 0 0-.608.384 1.696 1.696 0 0 0-.544 1.264v5.04h-1.984v-4.976c0-.405-.059-.74-.176-1.008a1.303 1.303 0 0 0-.512-.624 1.438 1.438 0 0 0-.816-.224c-.267 0-.517.048-.752.144a1.733 1.733 0 0 0-1.008.928 1.696 1.696 0 0 0-.144.704v5.056h-1.984Zm18.777.16c-.886 0-1.67-.186-2.352-.56a4.173 4.173 0 0 1-1.584-1.52c-.374-.65-.56-1.392-.56-2.224a4.9 4.9 0 0 1 .32-1.808 4.3 4.3 0 0 1 .88-1.408 3.86 3.86 0 0 1 1.36-.928 4.455 4.455 0 0 1 1.744-.336 3.78 3.78 0 0 1 1.552.32c.48.214.896.507 1.248.88.352.363.618.8.8 1.312.192.502.282 1.051.272 1.648l-.016.688h-6.832l-.368-1.344h5.552l-.256.272v-.352a1.702 1.702 0 0 0-.32-.864 1.815 1.815 0 0 0-.704-.592 1.929 1.929 0 0 0-.928-.224c-.523 0-.966.102-1.328.304a1.944 1.944 0 0 0-.8.88c-.182.374-.272.843-.272 1.408 0 .544.112 1.02.336 1.424.234.406.56.72.976.944.426.214.922.32 1.488.32.394 0 .757-.064 1.088-.192.33-.128.688-.357 1.072-.688l.976 1.36a4.443 4.443 0 0 1-.992.688 5.967 5.967 0 0 1-1.152.432c-.406.107-.806.16-1.2.16Zm9.199 0c-.886 0-1.67-.186-2.352-.56a4.173 4.173 0 0 1-1.584-1.52c-.374-.65-.56-1.392-.56-2.224a4.9 4.9 0 0 1 .32-1.808 4.3 4.3 0 0 1 .88-1.408 3.86 3.86 0 0 1 1.36-.928 4.455 4.455 0 0 1 1.744-.336 3.78 3.78 0 0 1 1.552.32c.48.214.896.507 1.248.88.352.363.618.8.8 1.312.192.502.282 1.051.272 1.648l-.016.688h-6.832l-.368-1.344h5.552l-.256.272v-.352a1.702 1.702 0 0 0-.32-.864 1.815 1.815 0 0 0-.704-.592 1.929 1.929 0 0 0-.928-.224c-.523 0-.966.102-1.328.304a1.944 1.944 0 0 0-.8.88c-.182.374-.272.843-.272 1.408 0 .544.112 1.02.336 1.424.234.406.56.72.976.944.426.214.922.32 1.488.32.394 0 .757-.064 1.088-.192.33-.128.688-.357 1.072-.688l.976 1.36a4.443 4.443 0 0 1-.992.688 5.967 5.967 0 0 1-1.152.432c-.406.107-.806.16-1.2.16Zm6.159-.16V88.754h1.968V99.33h-1.968Zm-1.664-6.608v-1.824h5.472v1.824h-5.472Zm11.29 6.608v-8.432h1.936l.032 1.696-.32.128c.096-.277.24-.533.432-.768.192-.245.421-.453.688-.624a3.28 3.28 0 0 1 .848-.416 2.69 2.69 0 0 1 .912-.16c.458 0 .864.075 1.216.224.362.14.661.363.896.672.245.31.426.704.544 1.184l-.304-.064.128-.256c.117-.256.282-.485.496-.688a3.7 3.7 0 0 1 .72-.56c.266-.17.544-.298.832-.384.298-.085.592-.128.88-.128.64 0 1.173.128 1.6.384.426.256.746.646.96 1.168.213.523.32 1.168.32 1.936v5.088h-1.984v-4.96c0-.426-.059-.778-.176-1.056a1.125 1.125 0 0 0-.512-.608c-.224-.138-.507-.208-.848-.208-.267 0-.523.048-.768.144a1.635 1.635 0 0 0-.608.384 1.696 1.696 0 0 0-.544 1.264v5.04h-1.984v-4.976c0-.405-.059-.74-.176-1.008a1.309 1.309 0 0 0-.512-.624 1.438 1.438 0 0 0-.816-.224c-.267 0-.518.048-.752.144a1.745 1.745 0 0 0-1.008.928 1.696 1.696 0 0 0-.144.704v5.056h-1.984Zm18.776.16c-.885 0-1.669-.186-2.352-.56a4.173 4.173 0 0 1-1.584-1.52c-.373-.65-.56-1.392-.56-2.224 0-.66.107-1.264.32-1.808a4.334 4.334 0 0 1 .88-1.408 3.868 3.868 0 0 1 1.36-.928 4.462 4.462 0 0 1 1.744-.336c.555 0 1.072.107 1.552.32.48.214.896.507 1.248.88.352.363.619.8.8 1.312.192.502.283 1.051.272 1.648l-.016.688h-6.832l-.368-1.344h5.552l-.256.272v-.352a1.693 1.693 0 0 0-.32-.864 1.807 1.807 0 0 0-.704-.592 1.923 1.923 0 0 0-.928-.224c-.522 0-.965.102-1.328.304a1.95 1.95 0 0 0-.8.88c-.181.374-.272.843-.272 1.408 0 .544.112 1.02.336 1.424.235.406.56.72.976.944.427.214.923.32 1.488.32.395 0 .758-.064 1.088-.192.331-.128.688-.357 1.072-.688l.976 1.36a4.42 4.42 0 0 1-.992.688 5.918 5.918 0 0 1-1.152.432c-.405.107-.805.16-1.2.16Zm9.999-.16v-8.432h1.968v8.432h-1.968Zm.96-10.224c-.395 0-.704-.096-.928-.288-.214-.202-.32-.485-.32-.848 0-.34.112-.618.336-.832.224-.213.528-.32.912-.32.405 0 .714.102.928.304.224.192.336.475.336.848 0 .331-.112.603-.336.816-.224.214-.534.32-.928.32Zm3.327 10.224v-8.432h1.92l.032 1.728-.368.192c.107-.384.315-.73.624-1.04.309-.32.677-.576 1.104-.768a3.167 3.167 0 0 1 1.312-.288c.64 0 1.173.128 1.6.384.437.256.763.64.976 1.152.224.512.336 1.152.336 1.92v5.152h-1.968v-5.008c0-.426-.059-.778-.176-1.056a1.17 1.17 0 0 0-.544-.624c-.245-.138-.544-.202-.896-.192-.288 0-.555.048-.8.144a1.793 1.793 0 0 0-.624.384c-.171.16-.309.347-.416.56a1.696 1.696 0 0 0-.144.704v5.088h-1.968Zm15.013 0V88.754h1.968V99.33h-1.968Zm-1.664-6.608v-1.824h5.472v1.824h-5.472Zm6.795 6.608V87.49h1.952v5.136l-.368.192c.107-.384.315-.73.624-1.04.309-.32.677-.576 1.104-.768a3.167 3.167 0 0 1 1.312-.288c.64 0 1.173.128 1.6.384.437.256.763.64.976 1.152.224.512.336 1.152.336 1.92v5.152h-1.968v-5.008c0-.426-.059-.778-.176-1.056a1.17 1.17 0 0 0-.544-.624c-.245-.138-.544-.202-.896-.192-.288 0-.555.048-.8.144a1.793 1.793 0 0 0-.624.384c-.171.16-.309.347-.416.56a1.696 1.696 0 0 0-.144.704v5.088h-1.968Zm13.526.16c-.885 0-1.669-.186-2.352-.56a4.173 4.173 0 0 1-1.584-1.52c-.373-.65-.56-1.392-.56-2.224 0-.66.107-1.264.32-1.808a4.317 4.317 0 0 1 .88-1.408 3.86 3.86 0 0 1 1.36-.928 4.458 4.458 0 0 1 1.744-.336c.555 0 1.072.107 1.552.32.48.214.896.507 1.248.88.352.363.619.8.8 1.312.192.502.283 1.051.272 1.648l-.016.688h-6.832l-.368-1.344h5.552l-.256.272v-.352a1.702 1.702 0 0 0-.32-.864 1.807 1.807 0 0 0-.704-.592 1.926 1.926 0 0 0-.928-.224c-.523 0-.965.102-1.328.304a1.944 1.944 0 0 0-.8.88c-.181.374-.272.843-.272 1.408 0 .544.112 1.02.336 1.424.235.406.56.72.976.944.427.214.923.32 1.488.32a2.99 2.99 0 0 0 1.088-.192c.331-.128.688-.357 1.072-.688l.976 1.36a4.443 4.443 0 0 1-.992.688 5.967 5.967 0 0 1-1.152.432c-.405.107-.805.16-1.2.16Zm9.742-.16v-8.432h1.936l.032 1.696-.32.128c.096-.277.24-.533.432-.768.192-.245.421-.453.688-.624.267-.18.549-.32.848-.416.299-.106.603-.16.912-.16.459 0 .864.075 1.216.224a2 2 0 0 1 .896.672c.245.31.427.704.544 1.184l-.304-.064.128-.256a2.22 2.22 0 0 1 .496-.688 3.7 3.7 0 0 1 .72-.56c.267-.17.544-.298.832-.384.299-.085.592-.128.88-.128.64 0 1.173.128 1.6.384.427.256.747.646.96 1.168.213.523.32 1.168.32 1.936v5.088h-1.984v-4.96c0-.426-.059-.778-.176-1.056a1.12 1.12 0 0 0-.512-.608c-.224-.138-.507-.208-.848-.208-.267 0-.523.048-.768.144a1.643 1.643 0 0 0-.608.384 1.696 1.696 0 0 0-.544 1.264v5.04h-1.984v-4.976c0-.405-.059-.74-.176-1.008a1.303 1.303 0 0 0-.512-.624 1.438 1.438 0 0 0-.816-.224c-.267 0-.517.048-.752.144a1.733 1.733 0 0 0-1.008.928 1.696 1.696 0 0 0-.144.704v5.056h-1.984Zm15.049 0v-8.432h1.968v8.432h-1.968Zm.96-10.224c-.395 0-.704-.096-.928-.288-.214-.202-.32-.485-.32-.848 0-.34.112-.618.336-.832.224-.213.528-.32.912-.32.405 0 .714.102.928.304.224.192.336.475.336.848 0 .331-.112.603-.336.816-.224.214-.534.32-.928.32Zm6.719 10.384a3.728 3.728 0 0 1-2.016-.56 4.218 4.218 0 0 1-1.408-1.552c-.341-.66-.512-1.418-.512-2.272 0-.842.171-1.594.512-2.256a3.944 3.944 0 0 1 1.392-1.552 3.651 3.651 0 0 1 2.016-.576c.406 0 .795.064 1.168.192.384.128.726.304 1.024.528.299.214.534.454.704.72.182.267.283.544.304.832l-.528.064V87.49h1.968v11.84h-1.904l-.048-1.984.384.032a1.36 1.36 0 0 1-.288.768 2.84 2.84 0 0 1-.672.672 3.63 3.63 0 0 1-.976.496 3.611 3.611 0 0 1-1.12.176Zm.384-1.664a2.14 2.14 0 0 0 1.216-.352c.352-.234.624-.554.816-.96.203-.405.304-.874.304-1.408 0-.522-.101-.986-.304-1.392a2.194 2.194 0 0 0-.816-.96 2.14 2.14 0 0 0-1.216-.352c-.458 0-.864.118-1.216.352a2.3 2.3 0 0 0-.832.96c-.192.406-.288.87-.288 1.392 0 .534.096 1.003.288 1.408.203.406.48.726.832.96.352.235.758.352 1.216.352Zm9.69 1.664a3.728 3.728 0 0 1-2.016-.56 4.218 4.218 0 0 1-1.408-1.552c-.341-.66-.512-1.418-.512-2.272 0-.842.171-1.594.512-2.256a3.944 3.944 0 0 1 1.392-1.552 3.651 3.651 0 0 1 2.016-.576c.406 0 .795.064 1.168.192.384.128.726.304 1.024.528.299.214.534.454.704.72.182.267.283.544.304.832l-.528.064V87.49h1.968v11.84h-1.904l-.048-1.984.384.032a1.36 1.36 0 0 1-.288.768 2.84 2.84 0 0 1-.672.672 3.63 3.63 0 0 1-.976.496 3.611 3.611 0 0 1-1.12.176Zm.384-1.664a2.14 2.14 0 0 0 1.216-.352c.352-.234.624-.554.816-.96.203-.405.304-.874.304-1.408 0-.522-.101-.986-.304-1.392a2.194 2.194 0 0 0-.816-.96 2.14 2.14 0 0 0-1.216-.352c-.458 0-.864.118-1.216.352a2.3 2.3 0 0 0-.832.96c-.192.406-.288.87-.288 1.392 0 .534.096 1.003.288 1.408.203.406.48.726.832.96.352.235.758.352 1.216.352Zm6.314 1.504V87.49h1.984v11.84h-1.984Zm7.917.16c-.886 0-1.67-.186-2.352-.56a4.173 4.173 0 0 1-1.584-1.52c-.374-.65-.56-1.392-.56-2.224a4.9 4.9 0 0 1 .32-1.808 4.3 4.3 0 0 1 .88-1.408 3.86 3.86 0 0 1 1.36-.928 4.455 4.455 0 0 1 1.744-.336 3.78 3.78 0 0 1 1.552.32c.48.214.896.507 1.248.88.352.363.618.8.8 1.312.192.502.282 1.051.272 1.648l-.016.688h-6.832l-.368-1.344h5.552l-.256.272v-.352a1.702 1.702 0 0 0-.32-.864 1.815 1.815 0 0 0-.704-.592 1.929 1.929 0 0 0-.928-.224c-.523 0-.966.102-1.328.304a1.944 1.944 0 0 0-.8.88c-.182.374-.272.843-.272 1.408 0 .544.112 1.02.336 1.424.234.406.56.72.976.944.426.214.922.32 1.488.32.394 0 .757-.064 1.088-.192.33-.128.688-.357 1.072-.688l.976 1.36a4.443 4.443 0 0 1-.992.688 5.967 5.967 0 0 1-1.152.432c-.406.107-.806.16-1.2.16Z"/><path fill="#F7B155" d="M41.774 41.362c.006.006.03.006.03.006s-5.135-25.627-10.19-30.682c-7.439-7.438-15.868-5.481-20.944-.428-5.053 5.076-7.01 13.505.428 20.944 5.055 5.055 30.688 10.183 30.688 10.183l-.012-.023Zm-24.39-17.29c-1.922-1.922-1.886-5.068.079-7.033 1.965-1.965 5.11-2 7.032-.08 1.921 1.922 1.88 5.074-.085 7.039-1.96 1.959-5.105 1.994-7.027.073ZM46.339 41.39c-.006.005-.005.029-.005.029s25.626-5.135 30.68-10.19c7.44-7.438 5.483-15.868.43-20.944-5.077-5.053-13.506-7.01-20.945.429C51.445 15.768 46.316 41.4 46.316 41.4l.023-.011ZM63.63 16.999c1.921-1.921 5.067-1.886 7.032.08 1.965 1.964 2 5.11.08 7.031-1.922 1.921-5.073 1.88-7.038-.085-1.96-1.96-1.995-5.105-.074-7.026ZM41.362 47.273c.006-.006.006-.029.006-.029S15.74 52.38 10.686 57.434c-7.438 7.438-5.481 15.867-.428 20.943 5.076 5.054 13.505 7.01 20.944-.428 5.055-5.055 10.183-30.687 10.183-30.687l-.023.01ZM24.071 71.664c-1.921 1.921-5.067 1.886-7.032-.08-1.965-1.964-2-5.11-.08-7.032 1.922-1.92 5.073-1.88 7.038.086 1.96 1.959 1.995 5.105.074 7.026Z"/></svg>