<svg width="104" height="136" viewBox="0 0 104 136" fill="none" xmlns="http://www.w3.org/2000/svg">
<path d="M104 52C104 73.4548 78 104 56.8148 132.889C54.003 136.741 49.997 136.741 47.1852 132.889C26 104 0 74.0326 0 52C0 23.2652 23.2652 0 52 0C80.7348 0 104 23.2652 104 52Z" fill="#F7B155"/>
<path opacity="0.25" d="M52 0C23.2652 0 0 23.2652 0 52C0 74.0326 26 104 47.1852 132.889C50.0741 136.818 54.003 136.741 56.8148 132.889C78 104 104 73.4548 104 52C104 23.2652 80.7348 0 52 0ZM52 3.85185C78.6548 3.85185 100.148 25.3452 100.148 52C100.148 61.2444 94.3704 73.8785 85.5882 87.5911C76.8444 101.304 64.3644 116.095 53.6948 130.616C52.9244 131.656 52.4237 132.196 52 132.658C51.5763 132.196 51.0756 131.656 50.3052 130.616C39.597 116.056 28.5422 101.342 19.3363 87.7067C10.0919 74.0711 3.85185 61.437 3.85185 52C3.85185 25.3452 25.3452 3.85185 52 3.85185Z" fill="black"/>
</svg>
